<?xml version="1.0" encoding="utf-8"?>
<!-- Generator: Adobe Illustrator 16.0.4, SVG Export Plug-In . SVG Version: 6.00 Build 0)  -->
<!DOCTYPE svg PUBLIC "-//W3C//DTD SVG 1.1//EN" "http://www.w3.org/Graphics/SVG/1.1/DTD/svg11.dtd">
<svg version="1.1" id="Layer_1" xmlns="http://www.w3.org/2000/svg" xmlns:xlink="http://www.w3.org/1999/xlink" x="0px" y="0px"
	 viewBox="0 0 301.628 100" enable-background="new 0 0 301.628 100" xml:space="preserve">
<g>
	<g>
		<g>
			<path fill="#F7931C" d="M51.878,27.103c0,0-4.873,3.39-1.483,9.111c3.391,5.721,18.434,18.434,17.374,30.299
				c-1.06,11.866-8.687,29.028-34.537,29.028c-25.85,0-32.365-18.382-32.418-25.214c-0.063-8.423,9.747-22.248,9.667-25.903
				c-0.079-3.655-0.158-7.23-5.959-9.773c0,0,7.102,0.408,7.866,9.058C12.945,50,8.336,54.277,8.733,60.634
				c0.521,8.329,6.118,10.488,8.104,10.488s9.455-1.88,7.549-9.8c-1.907-7.919-8.104-8.555-8.104-8.555s15.59-2.781,18.005,13.587
				c0,0,3.21-6.118-5.133-11.918c-8.343-5.801-14.223-10.091-14.858-21.136s9.534-16.845,9.534-16.845s-5.721,7.707-0.556,11.441
				c0,0-3.099-17.957,20.182-23.439c0,0-12.042,5.312-12.315,19.705c-0.397,20.897,27.375,23.238,26.221,41.238
				c-0.428,6.67-4.37,11.601-4.37,11.601s6.812-5.79,6.415-13.656s-4.509-11.85-9.275-17.809
				C45.363,39.578,43.217,32.983,51.878,27.103z"/>
		</g>
	</g>
	<g opacity="0.5">
		<path fill="#1C1A25" d="M240.256,75.048c0.141,0.653,0.093,1.049-0.14,1.188c-0.771,0.467-1.554,0.699-2.348,0.699
			c-1.239,0-2.547-0.687-3.926-2.062c-0.678-0.676-1.904-2.203-3.68-4.58c-1.589-2.121-2.932-3.684-4.03-4.686
			c-0.747,0.257-1.121,1.573-1.121,3.951c0,0.77,0.039,1.701,0.118,2.797l0.196,2.762c0.07,1.143-0.502,1.714-1.713,1.714
			c-0.793,0-1.551-0.257-2.273-0.769c-0.047-2.215-0.012-4.01,0.105-5.385v-7.482c-0.233-0.699-0.327-1.295-0.279-1.783
			c0.046-0.537,0.104-3.217,0.174-8.043c0.117-0.115,0.245-0.279,0.385-0.488c0.326-0.164,0.56-0.292,0.7-0.385
			c0.839-0.047,1.817-0.117,2.937-0.211c1.375-0.115,2.354-0.174,2.937-0.174c3.637,0,6.201,1.363,7.692,4.09
			c0.257,0.467,0.385,1.027,0.385,1.679c0,1.235-0.435,2.437-1.303,3.602c-0.259,0.35-0.84,0.856-1.743,1.521
			c-0.904,0.664-1.474,1.219-1.708,1.661c-0.094,0.14-0.141,0.304-0.141,0.489c0,1.307,1.298,3.334,3.896,6.084
			C237.272,73.242,238.898,74.512,240.256,75.048z M229.941,63.23c1.562-0.606,2.343-1.854,2.343-3.742
			c0-1.375-0.432-2.553-1.294-3.531c-0.909-1.072-2.04-1.539-3.392-1.398c-1.725,0.187-2.587,1.166-2.587,2.938
			c0,0.209,0.018,0.506,0.053,0.891c0.034,0.385,0.052,0.682,0.052,0.893c0,0.326-0.047,0.827-0.14,1.503
			c-0.094,0.677-0.14,1.177-0.14,1.503c0,1.073,0.385,1.982,1.153,2.729c0.07,0.022,0.141,0.034,0.21,0.034
			c0.396,0,0.944-0.361,1.644-1.084C228.426,63.801,229.125,63.557,229.941,63.23z"/>
		<path fill="#1C1A25" d="M256.725,75.502c0,0.373-0.175,0.734-0.524,1.084s-0.712,0.525-1.084,0.525
			c-1.259,0-2.146-0.327-2.657-0.979c-0.443-0.56-0.665-1.479-0.665-2.763c0,0.117,0.012,0.105,0.035-0.035v-1.363
			c0-1.188-0.186-2.039-0.557-2.553c-0.44-0.605-1.229-0.908-2.366-0.908c-0.904,0-1.797,0.303-2.679,0.908
			c-0.975,0.653-1.461,1.411-1.461,2.273c0,1.072,0.322,1.877,0.97,2.412c0.9,0.561,1.801,1.131,2.701,1.714
			c-0.187,0.862-1.084,1.294-2.692,1.294c-1.352,0-2.447-0.408-3.286-1.225c-0.84-0.815-1.259-1.899-1.259-3.252
			c0-2.587,1.434-4.031,4.301-4.335c0.792-0.093,1.794-0.372,3.007-0.839c1.888-0.746,2.832-1.609,2.832-2.588
			c0-0.605-0.379-1.194-1.137-1.766s-1.451-0.857-2.08-0.857c-0.14,0-0.338,0.03-0.595,0.088c-0.257,0.059-0.454,0.088-0.594,0.088
			c-0.514,0-0.909-0.128-1.189-0.385v-0.524c0-0.746,0.909-1.119,2.728-1.119c1.352,0,2.145,0.023,2.378,0.069
			c1.281,0.258,2.249,0.969,2.901,2.134c0.56,0.979,0.84,2.18,0.84,3.601c0,0.397-0.023,0.979-0.07,1.749
			c-0.047,0.769-0.07,1.353-0.07,1.748c0,0.933,0.094,1.737,0.28,2.413c0.07,0.163,0.442,0.769,1.119,1.818
			C256.433,74.885,256.725,75.41,256.725,75.502z"/>
		<path fill="#1C1A25" d="M265.597,62.915c-1.108-0.093-2.135,0.443-3.081,1.608c-0.831,1.025-1.246,2.005-1.246,2.938
			c0,0.187,0,0.361,0,0.524c0,0.116,0,0.233,0,0.349c0,1.236,0.418,2.454,1.252,3.654c0.835,1.201,1.833,2.069,2.992,2.605
			c0.44,0.187,1.043,0.361,1.81,0.523c0.278,0.048,0.556,0.27,0.834,0.665c-0.232,1.025-0.99,1.538-2.272,1.538
			c-0.769,0-1.632-0.163-2.587-0.489c-1.702-0.582-3.06-1.544-4.073-2.885c-1.015-1.34-1.521-2.896-1.521-4.667
			c0-3.311,1.585-5.91,4.755-7.798c1.329-0.792,2.564-1.188,3.706-1.188c0.42,0,1.072,0.181,1.959,0.541
			c0.885,0.362,1.515,0.543,1.888,0.543c0.63,0,1.107-0.326,1.434-0.979c0.256-0.513,0.385-1.118,0.385-1.818
			c0-0.325-0.029-0.815-0.088-1.468s-0.087-1.143-0.087-1.469c0-1.049,0.474-1.574,1.421-1.574c1.15,0,1.726,1.154,1.726,3.462
			c0,0.327,0,0.805,0,1.434c0,0.63,0,1.107,0,1.434c0,0.187,0,0.478,0,0.874s0,0.688,0,0.874c0,0.77-0.064,1.923-0.192,3.462
			s-0.192,2.692-0.192,3.461c0,0.561,0.093,2.018,0.28,4.371c0.069,0.887,0.104,1.504,0.104,1.854c0,0.396-0.204,0.711-0.611,0.943
			c-0.408,0.233-0.822,0.35-1.241,0.35c-0.467,0-0.84-0.191-1.119-0.574c-0.28-0.385-0.42-0.82-0.42-1.309
			c0-0.349,0.041-0.883,0.122-1.604c0.082-0.721,0.123-1.255,0.123-1.604c0-1.604-0.162-3.429-0.484-5.476
			c-0.069-0.487-0.37-1.011-0.9-1.569c-0.462-0.488-0.946-0.859-1.454-1.115c-0.323-0.163-0.923-0.303-1.8-0.419H265.597z"/>
		<path fill="#1C1A25" d="M279.381,58.3c-0.513-0.046-0.938-0.263-1.275-0.647c-0.339-0.385-0.508-0.832-0.508-1.346
			c0-1.025,0.524-1.596,1.574-1.713c1.025-0.117,1.538,0.361,1.538,1.434C280.71,57.17,280.267,57.928,279.381,58.3z
			 M280.814,75.537c-0.07,0.537-0.318,0.933-0.743,1.189c-0.165,0.093-0.412,0.139-0.742,0.139c-1.038,0-1.557-0.651-1.557-1.957
			c0,0.163,0.035-0.244,0.105-1.225V72.95v-7.937c-0.07-0.281-0.105-0.688-0.105-1.225c0-1.98,0.577-2.972,1.729-2.972
			c0.185,0,0.38,0.034,0.588,0.104c0.576,0.443,0.865,1.562,0.865,3.357c0,0.442-0.023,1.096-0.07,1.957
			c-0.047,0.863-0.07,1.516-0.07,1.959V75.537z"/>
		<path fill="#1C1A25" d="M300.779,69.698c-0.163,1.049-0.659,2.115-1.486,3.199s-1.73,1.895-2.709,2.431
			c-0.397,0.232-1.003,0.57-1.818,1.014c-0.723,0.373-1.376,0.559-1.958,0.559c-0.723,0-1.317-0.035-1.783-0.104
			c-1.539-0.232-2.739-0.617-3.602-1.153c-2.564-1.608-3.846-3.788-3.846-6.539c0-1.421,0.396-2.75,1.188-3.986
			c0.116-0.279,0.361-0.711,0.734-1.293c1.608-1.865,3.718-2.949,6.328-3.252c1.143-0.14,2.506,0.035,4.091,0.524
			c1.212,0.374,2.145,0.921,2.798,1.644c0.559,0.629,1.049,1.586,1.468,2.867c0.42,1.282,0.63,2.412,0.63,3.392
			C300.814,69.326,300.803,69.559,300.779,69.698z M295.604,74.244c1.259-1.212,1.889-2.82,1.889-4.826
			c0-1.934-0.549-3.549-1.644-4.842c-1.096-1.294-2.6-1.929-4.511-1.906c-0.746,0.023-1.644,0.432-2.692,1.225
			c-1.049,0.792-1.62,1.538-1.713,2.237c-0.233,1.958-0.222,3.321,0.035,4.091c0.419,1.236,1.13,2.297,2.133,3.182
			c1.095,0.979,2.249,1.469,3.461,1.469c0.141,0,0.851-0.093,2.133-0.279C295.161,74.523,295.465,74.407,295.604,74.244z"/>
	</g>
	<g>
		<path d="M103.159,66.022c0,2.387-1.632,5.019-4.895,7.896c-0.315,0.281-1.07,0.666-2.264,1.157
			c-2.456,1.019-4.491,1.526-6.104,1.526h-6.264c-0.315,0-0.789,0-1.421,0s-1.105,0-1.421,0c-1.299,0-2.018-0.35-2.158-1.053
			c-0.176-0.906-0.263-2.736-0.263-5.49c0-1.221,0.043-3.033,0.132-5.439c0.087-2.404,0.131-4.219,0.131-5.438v-5.981
			c0,0.351,0-0.821,0-3.516v-2.466c0-0.28-0.088-0.708-0.263-1.285c-0.177-0.577-0.264-1.006-0.264-1.286
			c0-1.259,1.211-2.011,3.632-2.256c0.351-0.035,2.018-0.053,5-0.053c0.245,0,0.622-0.026,1.132-0.079
			c0.508-0.052,0.886-0.079,1.132-0.079c2.525,0,4.736,0.492,6.631,1.474c2.351,1.193,3.526,2.947,3.526,5.263
			c0,0.947-0.342,2.263-1.026,3.948c-0.685,1.684-1.026,2.754-1.026,3.21s1.14,1.702,3.422,3.737
			c0.561,0.666,1.122,1.649,1.684,2.947C102.843,64.198,103.159,65.285,103.159,66.022z M87.949,59.181
			c-2.211,0-3.614,0.737-4.211,2.21c-0.281,0.703-0.421,2.404-0.421,5.105c0,1.895,0.386,3.457,1.158,4.685
			c0.911,1.509,2.263,2.263,4.052,2.263c2.07,0,3.982-0.701,5.737-2.105c1.895-1.473,2.842-3.227,2.842-5.263
			c0-1.859-1.088-3.509-3.263-4.947C91.877,59.83,89.913,59.181,87.949,59.181z M87.159,45.075c-2.387,0-3.579,1.764-3.579,5.291
			c0,1.433,0.245,2.654,0.737,3.667c0.632,1.326,1.596,1.989,2.895,1.989c0.597,0,1.264-0.157,2-0.472
			c1.192-0.034,2.228-0.627,3.105-1.78c0.842-1.048,1.263-2.183,1.263-3.405s-0.745-2.409-2.236-3.562
			C89.851,45.652,88.457,45.075,87.159,45.075z"/>
		<path d="M109.895,48.917c-0.772-0.07-1.413-0.395-1.921-0.974c-0.509-0.579-0.764-1.254-0.764-2.026
			c0-1.544,0.79-2.403,2.369-2.579c1.543-0.175,2.315,0.544,2.315,2.158C111.895,47.216,111.228,48.356,109.895,48.917z
			 M112.053,74.865c-0.107,0.807-0.479,1.403-1.119,1.789c-0.248,0.14-0.62,0.211-1.117,0.211c-1.562,0-2.343-0.982-2.343-2.947
			c0,0.245,0.053-0.369,0.158-1.843v-1.104V59.022c-0.105-0.421-0.158-1.034-0.158-1.842c0-2.981,0.867-4.474,2.603-4.474
			c0.278,0,0.572,0.053,0.885,0.158c0.867,0.666,1.302,2.351,1.302,5.053c0,0.666-0.035,1.648-0.105,2.947
			c-0.07,1.298-0.104,2.281-0.104,2.947V74.865z"/>
		<path d="M130.159,54.865c-0.209,0.561-0.819,0.895-1.829,1c-1.395,0.176-2.23,0.334-2.509,0.473
			c-0.697,0.387-1.324,1.369-1.882,2.947c-0.105,0.281-0.488,1.562-1.149,3.843v11.685c-0.178,1.439-0.958,2.158-2.341,2.158
			c-1.633,0-2.448-1.824-2.448-5.475c0-2.07,0.157-3.912,0.474-5.526c0.069-0.421,0.03-0.981-0.119-1.685
			c-0.197-0.876-0.296-1.455-0.296-1.736c0-0.631-0.02-1.508-0.059-2.631c-0.036-1.088-0.036-2,0-2.737
			c0.07-1.474,0.211-2.456,0.422-2.947c0.388-0.912,1.198-1.368,2.432-1.368c0.388,0,1.146,0.105,2.273,0.315
			c0.951,0.176,1.709,0.229,2.273,0.157c0.281-0.034,0.792-0.227,1.532-0.578c0.739-0.351,1.303-0.526,1.691-0.526
			c0.352,0,0.704,0.088,1.058,0.263c0.387,0.457,0.581,0.982,0.581,1.579C130.263,54.321,130.228,54.584,130.159,54.865z"/>
		<path d="M156.526,75.177c0,0.493-0.227,0.94-0.677,1.345c-0.452,0.404-0.921,0.606-1.406,0.606c-0.625,0-1.232-0.176-1.822-0.527
			s-0.885-0.826-0.885-1.425c0-1.02,0.053-2.549,0.158-4.59c0.105-2.039,0.157-3.57,0.157-4.59c0-6.189-1.87-9.848-5.609-10.974
			c-1.748-0.526-3.373-0.526-4.876,0c-1.119,0.387-1.835,1.474-2.149,3.263c-0.21,1.299-0.438,2.527-0.682,3.686v12.578
			c0,0.105,0,0.229,0,0.369c0,0.491-0.299,0.93-0.895,1.315c-0.597,0.386-1.158,0.579-1.685,0.579c-0.562,0-1-0.211-1.315-0.632
			c-0.597-0.771-0.895-1.754-0.895-2.947V62.76c0-0.105,0-0.475,0-1.105v-2.264v-5.105c0-0.561,0.246-1.025,0.738-1.395
			c0.492-0.368,1.037-0.553,1.636-0.553c0.492,0,1.213,0.098,2.163,0.29c0.948,0.193,1.67,0.29,2.163,0.29
			c0.421,0,1.934-0.352,4.536-1.053c1.547-0.422,2.76-0.597,3.641-0.527c1.229,0.105,2.69,0.722,4.379,1.847
			c1.934,1.302,2.953,2.548,3.059,3.744C156.438,58.897,156.526,64.98,156.526,75.177z"/>
		<path d="M182.209,62.654c-0.631,0-1.597-0.105-2.895-0.316c-1.299-0.21-2.298-0.297-3-0.263c-3.299,0.141-5.07,0.229-5.315,0.263
			c-2.176,0.316-3.598,1.105-4.264,2.369c-0.246,0.456-0.157,1.211,0.264,2.264c0.632,1.613,1.833,3.061,3.605,4.342
			c1.771,1.281,3.534,1.992,5.289,2.131c1.018,0.105,3.018,0.299,6,0.579c0.034,0.281-0.114,0.649-0.447,1.105
			c-0.334,0.456-0.641,0.755-0.921,0.896c-1.334,0.631-2.913,0.947-4.737,0.947c-3.649,0-7-1.018-10.053-3.053
			c-2.176-1.438-3.631-3.105-4.368-5c-0.562-1.439-0.895-3.597-1-6.475c-0.035-1.122,0.158-2.069,0.579-2.842
			c0.351-0.455,0.824-1.158,1.421-2.105c2.14-4.175,5.982-6.561,11.526-7.158c0.245-0.07,0.579-0.105,1-0.105
			c2.315,0,4.685,0.861,7.105,2.58c2.666,1.895,4,3.93,4,6.105C185.999,61.409,184.735,62.654,182.209,62.654z M178.946,58.075
			c0.14-1.368-0.632-2.474-2.315-3.315c-1.369-0.701-2.808-1.053-4.316-1.053c-0.808,0-1.736,0.377-2.789,1.131
			c-1.053,0.756-1.579,1.519-1.579,2.29c0,0.177,0.034,0.334,0.105,0.474c0.666,1.404,1.823,2.193,3.474,2.368
			c0.175,0.036,1.49,0.158,3.947,0.368c0.632-0.069,1.315-0.314,2.053-0.736C178.401,59.111,178.875,58.602,178.946,58.075z"/>
		<path d="M199.301,55.865c-1.668-0.141-3.213,0.666-4.637,2.42c-1.251,1.545-1.876,3.019-1.876,4.422c0,0.281,0,0.544,0,0.789
			c0,0.176,0,0.352,0,0.526c0,1.86,0.628,3.693,1.885,5.501c1.257,1.807,2.758,3.113,4.504,3.92c0.663,0.281,1.57,0.545,2.723,0.79
			c0.419,0.07,0.837,0.403,1.257,1c-0.352,1.544-1.492,2.315-3.421,2.315c-1.158,0-2.457-0.246-3.895-0.736
			c-2.562-0.877-4.605-2.324-6.132-4.342s-2.289-4.359-2.289-7.027c0-4.981,2.385-8.895,7.157-11.736
			c2-1.192,3.859-1.789,5.579-1.789c0.632,0,1.613,0.271,2.947,0.814c1.333,0.545,2.28,0.816,2.842,0.816
			c0.948,0,1.666-0.49,2.158-1.474c0.386-0.771,0.579-1.684,0.579-2.737c0-0.491-0.045-1.228-0.132-2.21
			c-0.088-0.982-0.132-1.719-0.132-2.21c0-1.579,0.714-2.369,2.14-2.369c1.731,0,2.598,1.737,2.598,5.21c0,0.492,0,1.21,0,2.158
			c0,0.947,0,1.667,0,2.158c0,0.281,0,0.72,0,1.315c0,0.598,0,1.035,0,1.316c0,1.158-0.097,2.895-0.29,5.211
			c-0.192,2.315-0.289,4.053-0.289,5.21c0,0.842,0.14,3.035,0.421,6.579c0.105,1.334,0.158,2.264,0.158,2.789
			c0,0.598-0.308,1.07-0.921,1.422c-0.614,0.351-1.237,0.525-1.869,0.525c-0.702,0-1.263-0.288-1.684-0.865
			c-0.421-0.578-0.632-1.234-0.632-1.969c0-0.525,0.061-1.33,0.185-2.416c0.122-1.084,0.184-1.889,0.184-2.414
			c0-2.414-0.243-5.162-0.729-8.242c-0.104-0.734-0.556-1.521-1.354-2.362c-0.695-0.735-1.425-1.296-2.188-1.681
			c-0.487-0.244-1.39-0.454-2.709-0.629H199.301z"/>
	</g>
</g>
</svg>
